<svg width="20" height="20" viewBox="0 0 20 20" fill="none" xmlns="http://www.w3.org/2000/svg">
<path d="M19.4754 15.429L15.4274 12.7294C14.9136 12.3895 14.225 12.5013 13.8452 12.9863L12.6661 14.5024C12.5145 14.7022 12.2391 14.7602 12.0199 14.6384L11.7956 14.5148C11.052 14.1095 10.1268 13.6049 8.26276 11.7402C6.3987 9.87544 5.89311 8.94956 5.48782 8.20737L5.36483 7.98307C5.24137 7.76388 5.29823 7.48724 5.49813 7.33449L7.01321 6.15568C7.49799 5.77585 7.60996 5.08744 7.27052 4.57357L4.57092 0.525501C4.22304 0.00221889 3.5251 -0.154867 2.98655 0.168874L1.29379 1.18572C0.761915 1.4984 0.3717 2.00481 0.204967 2.59883C-0.404591 4.81982 0.0539733 8.65293 5.70048 14.3001C10.1922 18.7914 13.536 19.9993 15.8343 19.9993C16.3633 20.0015 16.8901 19.9327 17.4008 19.7946C17.9949 19.6281 18.5014 19.2378 18.8139 18.7058L19.8317 17.0141C20.156 16.4754 19.9989 15.777 19.4754 15.429ZM19.2575 16.6721L18.2419 18.3648C18.0176 18.7489 17.6533 19.0312 17.2254 19.1527C15.1751 19.7157 11.5929 19.2494 6.17205 13.8285C0.751175 8.40765 0.284955 4.82584 0.847879 2.77517C0.96958 2.34679 1.25227 1.98204 1.63675 1.75731L3.3295 0.741797C3.56318 0.601192 3.8661 0.669346 4.01706 0.896422L5.48352 3.09809L6.71435 4.94414C6.86175 5.16704 6.81332 5.46578 6.60304 5.63072L5.0876 6.80953C4.62642 7.16217 4.49472 7.80024 4.77866 8.30665L4.899 8.52529C5.32495 9.3065 5.85452 10.2783 7.7879 12.2114C9.72129 14.1445 10.6928 14.6741 11.4737 15.1L11.6926 15.2206C12.199 15.5045 12.8371 15.3729 13.1898 14.9117L14.3686 13.3962C14.5335 13.1861 14.8322 13.1377 15.0551 13.2849L19.1029 15.9845C19.3301 16.1354 19.3983 16.4385 19.2575 16.6721Z" />
<path d="M11.3328 3.335C14.4605 3.33847 16.9951 5.87314 16.9986 9.00084C16.9986 9.18491 17.1478 9.33411 17.3319 9.33411C17.516 9.33411 17.6652 9.18491 17.6652 9.00084C17.6613 5.50515 14.8285 2.67228 11.3328 2.66846C11.1487 2.66846 10.9995 2.81765 10.9995 3.00173C10.9995 3.1858 11.1487 3.335 11.3328 3.335Z"/>
<path d="M11.3328 5.33475C13.3565 5.33714 14.9965 6.97713 14.9989 9.00089C14.9989 9.18496 15.1482 9.33416 15.3322 9.33416C15.5163 9.33416 15.6655 9.18496 15.6655 9.00089C15.6627 6.60914 13.7245 4.67095 11.3328 4.66821C11.1487 4.66821 10.9995 4.81741 10.9995 5.00148C10.9995 5.18556 11.1487 5.33475 11.3328 5.33475Z"/>
<path d="M11.3328 7.33451C12.2526 7.3356 12.9981 8.08104 12.9992 9.00094C12.9992 9.18502 13.1485 9.33421 13.3325 9.33421C13.5165 9.33421 13.6658 9.18502 13.6658 9.00094C13.6643 7.71309 12.6206 6.66941 11.3328 6.66797C11.1487 6.66797 10.9995 6.81717 10.9995 7.00124C10.9995 7.18531 11.1487 7.33451 11.3328 7.33451Z"/>
</svg>
